<svg viewBox="0 0 1024 1024" xmlns="http://www.w3.org/2000/svg">
  <defs>
    <clipPath id="clip-v3a"><rect width="1024" height="1024" rx="229"/></clipPath>
    <linearGradient id="main-v3a" x1="0" y1="0" x2="1" y2="1">
      <stop offset="0" stop-color="#2e8b67"/><stop offset="1" stop-color="#4fb08c"/>
    </linearGradient>
  </defs>
  <g clip-path="url(#clip-v3a)">
    <rect width="1024" height="1024" fill="#212121"/>
    <path d="M784 190 638 360h78l-8 184 148-170h-78z" fill="url(#main-v3a)" opacity=".55"/>
    <path d="M650 138 430 394h116l-12 276 222-256H640z" fill="url(#main-v3a)" opacity=".76"/>
    <path d="M464 108 148 476h168l-18 396 318-368H448z" fill="#1a5e45" opacity=".45" transform="translate(14 18)"/>
    <path d="M464 108 148 476h168l-18 396 318-368H448z" fill="url(#main-v3a)"/>
    <path d="M464 108 148 476h42l316-368z" fill="#a8d8c4" opacity=".42"/>
    <path d="M92 836h254M92 878h170" fill="none" stroke="#4fb08c" stroke-width="14" stroke-linecap="round" opacity=".55"/>
  </g>
</svg>
