<svg viewBox="0 0 1024 1024" xmlns="http://www.w3.org/2000/svg">
  <defs>
    <clipPath id="clip-v3b"><rect width="1024" height="1024" rx="229"/></clipPath>
    <linearGradient id="main-v3b" x1="0" y1="1" x2="0" y2="0">
      <stop offset="0" stop-color="#1a5e45"/><stop offset="1" stop-color="#4fb08c"/>
    </linearGradient>
  </defs>
  <g clip-path="url(#clip-v3b)">
    <rect width="1024" height="1024" fill="#f7f7f5"/>
    <path d="M784 190 638 360h78l-8 184 148-170h-78z" fill="url(#main-v3b)" stroke="#1a5e45" stroke-width="10" opacity=".58"/>
    <path d="M650 138 430 394h116l-12 276 222-256H640z" fill="url(#main-v3b)" stroke="#1a5e45" stroke-width="10" opacity=".8"/>
    <path d="M464 108 148 476h168l-18 396 318-368H448z" fill="#1a5e45" opacity=".2" transform="translate(14 18)"/>
    <path d="M464 108 148 476h168l-18 396 318-368H448z" fill="url(#main-v3b)" stroke="#1a5e45" stroke-width="12" stroke-linejoin="round"/>
    <path d="M464 108 148 476h42l316-368z" fill="#a8d8c4" opacity=".52"/>
    <path d="M92 836h254M92 878h170" fill="none" stroke="#1a5e45" stroke-width="14" stroke-linecap="round" opacity=".62"/>
  </g>
</svg>
