<svg viewBox="0 0 1024 1024" xmlns="http://www.w3.org/2000/svg">
  <defs>
    <clipPath id="clip-v4a"><rect width="1024" height="1024" rx="229"/></clipPath>
    <linearGradient id="main-v4a" x1="0" y1="0" x2="1" y2="1">
      <stop offset="0" stop-color="#2e8b67"/><stop offset="1" stop-color="#4fb08c"/>
    </linearGradient>
  </defs>
  <g clip-path="url(#clip-v4a)">
    <rect width="1024" height="1024" fill="#212121"/>
    <circle cx="512" cy="482" r="378" fill="none" stroke="#4fb08c" stroke-width="12" opacity=".14"/>
    <path d="M512 900S168 728 168 442V190h688v252c0 286-344 458-344 458z" fill="url(#main-v4a)"/>
    <path d="M512 860S210 706 210 452V234h604v218c0 254-302 408-302 408z" fill="#212121" opacity=".88" stroke="#a8d8c4" stroke-width="10"/>
    <path d="M574 292 326 552h128l-6 142 250-260H570z" fill="url(#main-v4a)"/>
    <path d="M574 292 326 552h38l248-260z" fill="#a8d8c4" opacity=".46"/>
    <path d="M398 746h228M438 790h148" fill="none" stroke="#4fb08c" stroke-width="12" stroke-linecap="round" opacity=".55"/>
  </g>
</svg>
